<?xml version="1.0" encoding="UTF-8"?>
<svg width="18px" height="17px" viewBox="0 0 18 17" version="1.1" xmlns="http://www.w3.org/2000/svg" xmlns:xlink="http://www.w3.org/1999/xlink">
    <!-- Generator: Sketch 60 (88103) - https://sketch.com -->
    <title>Combined Shape</title>
    <desc>Created with Sketch.</desc>
    <g id="PDP---Desktop" stroke="none" stroke-width="1" fill="none" fill-rule="evenodd">
        <g id="PDP-D" transform="translate(-960.000000, -1676.000000)" fill="#F1F1F1" fill-rule="nonzero">
            <g id="Group-7" transform="translate(0.000000, 1460.000000)">
                <g id="Group-4" transform="translate(808.000000, 216.000000)">
                    <path d="M163.354622,1.79856227 C165.728367,3.99380314 166.148683,7.48855511 164.540138,10.1406209 L169.686933,14.901606 C170.084576,15.2693467 170.10633,15.8871461 169.735522,16.2814997 L169.35186,16.6895227 C168.981052,17.0838763 168.358099,17.1054503 167.960456,16.7377097 L162.852461,12.013422 C160.283265,13.9670352 156.593163,13.8535629 154.146746,11.5911149 C151.420051,9.06946476 151.27088,4.83312581 153.813565,2.12898705 C156.35625,-0.575151698 160.627927,-0.723087914 163.354622,1.79856227 Z M155.459272,3.65093757 C153.764148,5.45369674 153.863595,8.27792271 155.681392,9.95902283 C157.499189,11.640123 160.346974,11.5414988 162.042097,9.73873964 C163.73722,7.93598047 163.637773,5.1117545 161.819976,3.43065438 C160.002179,1.74955426 157.154395,1.8481784 155.459272,3.65093757 Z" id="Combined-Shape"></path>
                </g>
            </g>
        </g>
    </g>
</svg>